<?xml version="1.0" encoding="iso-8859-1"?>
<!-- Generator: Adobe Illustrator 16.0.0, SVG Export Plug-In . SVG Version: 6.00 Build 0)  -->
<!DOCTYPE svg PUBLIC "-//W3C//DTD SVG 1.1//EN" "http://www.w3.org/Graphics/SVG/1.1/DTD/svg11.dtd">
<svg version="1.1" id="Layer_1" xmlns="http://www.w3.org/2000/svg" xmlns:xlink="http://www.w3.org/1999/xlink" x="0px" y="0px"
	 width="416.591px" height="124.5px" viewBox="0 0 416.591 124.5" style="enable-background:new 0 0 416.591 124.5;"
	 xml:space="preserve">
<g>
	<g>
		<path style="fill:#DF1F26;" d="M5.59,78.642h14.062c0.928,3.564,5.42,5.811,11.035,5.811c7.227,0,11.963-3.711,11.963-9.766
			v-9.619h-0.293c-2.588,5.762-8.887,9.424-16.65,9.424c-13.086,0-21.875-10.156-21.875-26.709c0-16.846,8.496-27.344,22.119-27.344
			c7.715,0,13.818,3.857,16.65,9.814h0.244v-9.18h14.062v52.539c0,12.793-10.4,20.898-26.562,20.898
			C16.234,94.511,6.322,88.31,5.59,78.642z M42.699,47.88c0-9.668-4.785-15.918-12.207-15.918c-7.373,0-12.061,6.152-12.061,15.869
			c0,9.766,4.639,15.625,12.061,15.625S42.699,57.5,42.699,47.88z"/>
	</g>
	<g>
		<path style="fill:#2DA6DF;" d="M47.09,78.642h14.062c0.928,3.564,5.42,5.811,11.035,5.811c7.227,0,11.963-3.711,11.963-9.766
			v-9.619h-0.293c-2.588,5.762-8.887,9.424-16.65,9.424c-13.086,0-21.875-10.156-21.875-26.709c0-16.846,8.496-27.344,22.119-27.344
			c7.715,0,13.818,3.857,16.65,9.814h0.244v-9.18h14.062v52.539c0,12.793-10.4,20.898-26.562,20.898
			C57.734,94.511,47.822,88.31,47.09,78.642z M84.199,47.88c0-9.668-4.785-15.918-12.207-15.918
			c-7.373,0-12.061,6.152-12.061,15.869c0,9.766,4.639,15.625,12.061,15.625S84.199,57.5,84.199,47.88z"/>
	</g>
	<g>
		<path style="fill:#322E7F;" d="M47.09,78.642c0.262,3.458,1.716,6.463,4.1,8.909c2.527-2.427,4.277-5.429,5.126-8.909H47.09z"/>
		<path style="fill:#322E7F;" d="M56.908,71.953V23.032c-7.316,4.092-11.576,12.829-11.576,24.751
			C45.332,59.475,49.721,67.969,56.908,71.953z"/>
	</g>
</g>
<g>
	<path style="fill:#454545;" d="M124.383,22.586c10.645,0,18.359,6.348,18.896,15.381h-6.201c-0.635-5.957-5.469-9.912-12.891-9.912
		c-7.031,0-12.305,3.613-12.305,8.936c0,4.297,3.125,6.787,9.814,8.447l8.057,1.953c10.547,2.637,14.551,6.445,14.551,13.916
		c0,8.887-8.447,15.039-20.264,15.039c-11.279,0-19.385-6.445-20.117-15.381h6.543c0.781,6.006,6.006,9.961,13.965,9.961
		c7.861,0,13.33-3.613,13.33-9.18c0-4.443-2.686-6.885-9.814-8.643l-8.887-2.246c-9.082-2.295-13.574-6.592-13.574-13.525
		C105.486,28.641,113.543,22.586,124.383,22.586z"/>
	<path style="fill:#454545;" d="M192.16,60.867c-1.562,8.984-10.205,15.479-21.631,15.479c-14.551,0-23.828-10.205-23.828-26.758
		c0-16.309,9.277-27.002,23.438-27.002c13.818,0,22.705,10.01,22.705,25.635v2.832h-39.453v0.342
		c0,11.914,6.836,19.238,17.285,19.238c7.91,0,13.525-4.004,15.088-9.766H192.16z M153.391,45.779h32.715
		c-0.098-10.449-6.543-17.48-16.064-17.48C160.617,28.299,153.977,35.33,153.391,45.779z"/>
	<path style="fill:#454545;" d="M235.963,34.061h0.146V23.172h6.152v69.824h-6.494V64.92h-0.146
		c-2.93,6.836-9.717,11.426-18.115,11.426c-13.184,0-22.314-10.84-22.314-26.904s9.131-26.855,22.461-26.855
		C226.197,22.586,232.984,27.127,235.963,34.061z M235.768,49.441c0-12.451-7.031-21.094-17.139-21.094
		c-10.059,0-16.846,8.447-16.846,21.143s6.787,21.045,16.846,21.045C228.736,70.535,235.768,61.941,235.768,49.441z"/>
	<path style="fill:#454545;" d="M250.322,2.225h6.445V75.76h-6.445V2.225z"/>
	<path style="fill:#454545;" d="M262.24,49.441c0-16.406,9.424-26.855,23.877-26.855s23.926,10.449,23.926,26.855
		s-9.473,26.904-23.926,26.904S262.24,65.848,262.24,49.441z M303.451,49.441c0-13.135-6.641-21.094-17.334-21.094
		c-10.645,0-17.285,8.008-17.285,21.094c0,13.135,6.641,21.094,17.285,21.094C296.811,70.535,303.451,62.576,303.451,49.441z"/>
	<path style="fill:#454545;" d="M314.979,80.594h6.738c1.27,4.688,6.982,7.812,14.844,7.812c9.766,0,16.26-5.029,16.26-13.135
		V64.578h-0.146c-2.93,6.787-9.668,11.426-18.066,11.426c-13.232,0-22.217-10.742-22.217-26.66c0-16.064,8.984-26.758,22.363-26.758
		c8.398,0,15.186,4.59,18.262,11.475h0.098V23.172h6.152v51.611c0,12.061-9.033,19.287-23.096,19.287
		C324.549,94.07,316.297,88.65,314.979,80.594z M352.82,49.344c0-12.451-6.934-20.996-17.09-20.996
		c-10.059,0-16.748,8.398-16.748,20.996c0,12.549,6.689,20.85,16.748,20.85C345.887,70.193,352.82,61.697,352.82,49.344z"/>
	<path style="fill:#454545;" d="M364.25,49.441c0-16.406,9.424-26.855,23.877-26.855s23.926,10.449,23.926,26.855
		s-9.473,26.904-23.926,26.904S364.25,65.848,364.25,49.441z M405.461,49.441c0-13.135-6.641-21.094-17.334-21.094
		c-10.645,0-17.285,8.008-17.285,21.094c0,13.135,6.641,21.094,17.285,21.094C398.82,70.535,405.461,62.576,405.461,49.441z"/>
</g>
<g>
	<path style="fill:#454545;" d="M6.832,119.333v-14.092h5.186c2.422,0,4.072,1.396,4.072,3.477c0,1.562-1.084,2.9-2.578,3.174v0.068
		c1.943,0.234,3.301,1.553,3.301,3.506c0,2.402-1.787,3.867-4.766,3.867H6.832z M8.16,111.501h3.184
		c2.139,0,3.398-0.977,3.398-2.637c0-1.533-1.133-2.441-3.008-2.441H8.16V111.501z M11.871,118.152c2.295,0,3.574-1.006,3.574-2.754
		c0-1.758-1.328-2.744-3.76-2.744H8.16v5.498H11.871z"/>
	<path style="fill:#454545;" d="M26.325,116.355c-0.312,1.797-2.041,3.096-4.326,3.096c-2.91,0-4.766-2.041-4.766-5.352
		c0-3.262,1.855-5.4,4.688-5.4c2.764,0,4.541,2.002,4.541,5.127v0.566h-7.891v0.068c0,2.383,1.367,3.848,3.457,3.848
		c1.582,0,2.705-0.801,3.018-1.953H26.325z M18.571,113.337h6.543c-0.02-2.09-1.309-3.496-3.213-3.496
		C20.017,109.841,18.688,111.248,18.571,113.337z"/>
	<path style="fill:#454545;" d="M27.039,116.404c0-1.797,1.348-2.842,3.867-3.018l3.232-0.215v-0.898
		c0-1.533-0.967-2.422-2.666-2.422c-1.465,0-2.49,0.752-2.725,2.002h-1.24c0.107-1.846,1.768-3.154,3.975-3.154
		c2.412,0,3.945,1.348,3.945,3.467v7.168h-1.23v-2.012h-0.029c-0.566,1.279-1.992,2.129-3.604,2.129
		C28.464,119.451,27.039,118.22,27.039,116.404z M34.138,115.378v-1.162l-3.076,0.215c-1.768,0.117-2.705,0.801-2.705,1.982
		c0,1.133,0.996,1.904,2.461,1.904C32.703,118.318,34.138,117.039,34.138,115.378z"/>
	<path style="fill:#454545;" d="M45.428,119.333h-1.221v-1.973h-0.029c-0.576,1.289-1.904,2.09-3.574,2.09
		c-2.285,0-3.77-1.484-3.77-3.857v-6.777h1.289v6.562c0,1.875,1.074,2.91,2.852,2.91c1.836,0,3.154-1.299,3.154-3.291v-6.182h1.299
		V119.333z"/>
	<path style="fill:#454545;" d="M48.798,106.296v2.52h2.109v1.084h-2.109v6.797c0,1.094,0.43,1.562,1.406,1.562
		c0.137,0,0.674-0.029,0.752-0.039v1.104c-0.137,0.039-0.732,0.068-1.006,0.068c-1.738,0-2.441-0.752-2.441-2.646V109.9h-1.504
		v-1.084h1.504v-2.52H48.798z"/>
	<path style="fill:#454545;" d="M51.846,105.867c0-0.488,0.4-0.879,0.879-0.879s0.869,0.391,0.869,0.879
		c0,0.469-0.391,0.869-0.869,0.869S51.846,106.335,51.846,105.867z M52.08,108.816h1.289v10.518H52.08V108.816z"/>
	<path style="fill:#454545;" d="M55.519,109.9h-1.465v-1.084h1.465v-1.201c0-1.846,0.85-2.656,2.598-2.656
		c0.322,0,0.605,0.029,0.869,0.088v1.084c-0.215-0.049-0.498-0.078-0.762-0.078c-0.938,0-1.396,0.449-1.406,1.582v1.182h2.139v1.084
		h-2.139v9.434h-1.299V109.9z"/>
	<path style="fill:#454545;" d="M68.478,119.333h-1.221v-1.973h-0.029c-0.576,1.289-1.904,2.09-3.574,2.09
		c-2.285,0-3.77-1.484-3.77-3.857v-6.777h1.289v6.562c0,1.875,1.074,2.91,2.852,2.91c1.836,0,3.154-1.299,3.154-3.291v-6.182h1.299
		V119.333z"/>
	<path style="fill:#454545;" d="M70.09,104.626h1.289v14.707H70.09V104.626z"/>
	<path style="fill:#454545;" d="M76.215,116.404c0-1.797,1.348-2.842,3.867-3.018l3.232-0.215v-0.898
		c0-1.533-0.967-2.422-2.666-2.422c-1.465,0-2.49,0.752-2.725,2.002h-1.24c0.107-1.846,1.768-3.154,3.975-3.154
		c2.412,0,3.945,1.348,3.945,3.467v7.168h-1.23v-2.012h-0.029c-0.566,1.279-1.992,2.129-3.604,2.129
		C77.641,119.451,76.215,118.22,76.215,116.404z M83.314,115.378v-1.162l-3.076,0.215c-1.768,0.117-2.705,0.801-2.705,1.982
		c0,1.133,0.996,1.904,2.461,1.904C81.879,118.318,83.314,117.039,83.314,115.378z"/>
	<path style="fill:#454545;" d="M86.069,108.816h1.211v1.963h0.039c0.586-1.309,1.836-2.08,3.535-2.08
		c2.314,0,3.799,1.484,3.799,3.867v6.768h-1.289v-6.562c0-1.855-1.084-2.92-2.871-2.92c-1.875,0-3.135,1.338-3.135,3.301v6.182
		h-1.289V108.816z"/>
	<path style="fill:#454545;" d="M95.591,114.07c0-3.213,1.855-5.371,4.473-5.371c1.699,0,3.047,0.918,3.613,2.275h0.029v-6.348
		h1.299v14.707h-1.23v-2.236h-0.029c-0.605,1.426-1.943,2.354-3.652,2.354C97.457,119.451,95.591,117.283,95.591,114.07z
		 M96.91,114.07c0,2.539,1.377,4.219,3.389,4.219c2.021,0,3.418-1.709,3.418-4.219c0-2.49-1.396-4.219-3.418-4.219
		C98.287,109.851,96.91,111.541,96.91,114.07z"/>
	<path style="fill:#454545;" d="M114.548,119.333h-1.367l-3.926-10.518h1.357l3.232,9.141h0.029l3.242-9.141h1.348L114.548,119.333z
		"/>
	<path style="fill:#454545;" d="M127.352,116.355c-0.312,1.797-2.041,3.096-4.326,3.096c-2.91,0-4.766-2.041-4.766-5.352
		c0-3.262,1.855-5.4,4.688-5.4c2.764,0,4.541,2.002,4.541,5.127v0.566h-7.891v0.068c0,2.383,1.367,3.848,3.457,3.848
		c1.582,0,2.705-0.801,3.018-1.953H127.352z M119.598,113.337h6.543c-0.02-2.09-1.309-3.496-3.213-3.496
		C121.043,109.841,119.715,111.248,119.598,113.337z"/>
	<path style="fill:#454545;" d="M128.485,108.816h1.211v1.865h0.039c0.361-1.25,1.357-1.982,2.666-1.982
		c0.273,0,0.615,0.059,0.781,0.107v1.289c-0.166-0.078-0.596-0.156-0.957-0.156c-1.494,0-2.451,1.172-2.451,2.871v6.523h-1.289
		V108.816z"/>
	<path style="fill:#454545;" d="M137.382,108.699c2.129,0,3.672,1.27,3.779,3.076h-1.24c-0.127-1.191-1.094-1.982-2.578-1.982
		c-1.406,0-2.461,0.723-2.461,1.787c0,0.859,0.625,1.357,1.963,1.689l1.611,0.391c2.109,0.527,2.91,1.289,2.91,2.783
		c0,1.777-1.689,3.008-4.053,3.008c-2.256,0-3.877-1.289-4.023-3.076h1.309c0.156,1.201,1.201,1.992,2.793,1.992
		c1.572,0,2.666-0.723,2.666-1.836c0-0.889-0.537-1.377-1.963-1.729l-1.777-0.449c-1.816-0.459-2.715-1.318-2.715-2.705
		C133.603,109.91,135.214,108.699,137.382,108.699z"/>
	<path style="fill:#454545;" d="M141.954,116.404c0-1.797,1.348-2.842,3.867-3.018l3.232-0.215v-0.898
		c0-1.533-0.967-2.422-2.666-2.422c-1.465,0-2.49,0.752-2.725,2.002h-1.24c0.107-1.846,1.768-3.154,3.975-3.154
		c2.412,0,3.945,1.348,3.945,3.467v7.168h-1.23v-2.012h-0.029c-0.566,1.279-1.992,2.129-3.604,2.129
		C143.379,119.451,141.954,118.22,141.954,116.404z M149.053,115.378v-1.162l-3.076,0.215c-1.768,0.117-2.705,0.801-2.705,1.982
		c0,1.133,0.996,1.904,2.461,1.904C147.618,118.318,149.053,117.039,149.053,115.378z"/>
	<path style="fill:#454545;" d="M153.663,106.296v2.52h2.109v1.084h-2.109v6.797c0,1.094,0.43,1.562,1.406,1.562
		c0.137,0,0.674-0.029,0.752-0.039v1.104c-0.137,0.039-0.732,0.068-1.006,0.068c-1.738,0-2.441-0.752-2.441-2.646V109.9h-1.504
		v-1.084h1.504v-2.52H153.663z"/>
	<path style="fill:#454545;" d="M156.711,105.867c0-0.488,0.4-0.879,0.879-0.879s0.869,0.391,0.869,0.879
		c0,0.469-0.391,0.869-0.869,0.869S156.711,106.335,156.711,105.867z M156.945,108.816h1.289v10.518h-1.289V108.816z"/>
	<path style="fill:#454545;" d="M159.954,104.626h1.289v14.707h-1.289V104.626z"/>
	<path style="fill:#454545;" d="M171.429,116.355c-0.312,1.797-2.041,3.096-4.326,3.096c-2.91,0-4.766-2.041-4.766-5.352
		c0-3.262,1.855-5.4,4.688-5.4c2.764,0,4.541,2.002,4.541,5.127v0.566h-7.891v0.068c0,2.383,1.367,3.848,3.457,3.848
		c1.582,0,2.705-0.801,3.018-1.953H171.429z M163.675,113.337h6.543c-0.02-2.09-1.309-3.496-3.213-3.496
		C165.121,109.841,163.792,111.248,163.675,113.337z"/>
	<path style="fill:#454545;" d="M179.761,108.699c2.129,0,3.672,1.27,3.779,3.076h-1.24c-0.127-1.191-1.094-1.982-2.578-1.982
		c-1.406,0-2.461,0.723-2.461,1.787c0,0.859,0.625,1.357,1.963,1.689l1.611,0.391c2.109,0.527,2.91,1.289,2.91,2.783
		c0,1.777-1.689,3.008-4.053,3.008c-2.256,0-3.877-1.289-4.023-3.076h1.309c0.156,1.201,1.201,1.992,2.793,1.992
		c1.572,0,2.666-0.723,2.666-1.836c0-0.889-0.537-1.377-1.963-1.729l-1.777-0.449c-1.816-0.459-2.715-1.318-2.715-2.705
		C175.981,109.91,177.593,108.699,179.761,108.699z"/>
	<path style="fill:#454545;" d="M193.316,116.355c-0.312,1.797-2.041,3.096-4.326,3.096c-2.91,0-4.766-2.041-4.766-5.352
		c0-3.262,1.855-5.4,4.688-5.4c2.764,0,4.541,2.002,4.541,5.127v0.566h-7.891v0.068c0,2.383,1.367,3.848,3.457,3.848
		c1.582,0,2.705-0.801,3.018-1.953H193.316z M185.562,113.337h6.543c-0.02-2.09-1.309-3.496-3.213-3.496
		C187.008,109.841,185.68,111.248,185.562,113.337z"/>
	<path style="fill:#454545;" d="M202.077,110.994h0.029v-2.178h1.23v13.965h-1.299v-5.615h-0.029
		c-0.586,1.367-1.943,2.285-3.623,2.285c-2.637,0-4.463-2.168-4.463-5.381s1.826-5.371,4.492-5.371
		C200.124,108.699,201.481,109.607,202.077,110.994z M202.038,114.07c0-2.49-1.406-4.219-3.428-4.219
		c-2.012,0-3.369,1.689-3.369,4.229s1.357,4.209,3.369,4.209C200.632,118.289,202.038,116.57,202.038,114.07z"/>
	<path style="fill:#454545;" d="M213.386,119.333h-1.221v-1.973h-0.029c-0.576,1.289-1.904,2.09-3.574,2.09
		c-2.285,0-3.77-1.484-3.77-3.857v-6.777h1.289v6.562c0,1.875,1.074,2.91,2.852,2.91c1.836,0,3.154-1.299,3.154-3.291v-6.182h1.299
		V119.333z"/>
	<path style="fill:#454545;" d="M223.465,116.355c-0.312,1.797-2.041,3.096-4.326,3.096c-2.91,0-4.766-2.041-4.766-5.352
		c0-3.262,1.855-5.4,4.688-5.4c2.764,0,4.541,2.002,4.541,5.127v0.566h-7.891v0.068c0,2.383,1.367,3.848,3.457,3.848
		c1.582,0,2.705-0.801,3.018-1.953H223.465z M215.711,113.337h6.543c-0.02-2.09-1.309-3.496-3.213-3.496
		C217.157,109.841,215.829,111.248,215.711,113.337z"/>
	<path style="fill:#454545;" d="M224.599,108.816h1.211v1.963h0.039c0.586-1.309,1.836-2.08,3.535-2.08
		c2.314,0,3.799,1.484,3.799,3.867v6.768h-1.289v-6.562c0-1.855-1.084-2.92-2.871-2.92c-1.875,0-3.135,1.338-3.135,3.301v6.182
		h-1.289V108.816z"/>
	<path style="fill:#454545;" d="M241.895,112.126c-0.254-1.289-1.357-2.275-3.037-2.275c-2.061,0-3.418,1.66-3.418,4.219
		c0,2.607,1.367,4.219,3.428,4.219c1.611,0,2.734-0.82,3.037-2.197h1.279c-0.303,1.982-1.992,3.359-4.316,3.359
		c-2.861,0-4.746-2.061-4.746-5.381c0-3.252,1.875-5.371,4.727-5.371c2.461,0,4.072,1.572,4.326,3.428H241.895z"/>
	<path style="fill:#454545;" d="M252.628,116.355c-0.312,1.797-2.041,3.096-4.326,3.096c-2.91,0-4.766-2.041-4.766-5.352
		c0-3.262,1.855-5.4,4.688-5.4c2.764,0,4.541,2.002,4.541,5.127v0.566h-7.891v0.068c0,2.383,1.367,3.848,3.457,3.848
		c1.582,0,2.705-0.801,3.018-1.953H252.628z M244.874,113.337h6.543c-0.02-2.09-1.309-3.496-3.213-3.496
		C246.319,109.841,244.991,111.248,244.874,113.337z"/>
	<path style="fill:#454545;" d="M257.493,104.626h1.289v14.707h-1.289V104.626z"/>
	<path style="fill:#454545;" d="M259.876,114.07c0-3.281,1.885-5.371,4.775-5.371s4.785,2.09,4.785,5.371s-1.895,5.381-4.785,5.381
		S259.876,117.351,259.876,114.07z M268.118,114.07c0-2.627-1.328-4.219-3.467-4.219c-2.129,0-3.457,1.602-3.457,4.219
		c0,2.627,1.328,4.219,3.457,4.219C266.79,118.289,268.118,116.697,268.118,114.07z"/>
	<path style="fill:#454545;" d="M270.424,120.3h1.348c0.254,0.938,1.396,1.562,2.969,1.562c1.953,0,3.252-1.006,3.252-2.627v-2.139
		h-0.029c-0.586,1.357-1.934,2.285-3.613,2.285c-2.646,0-4.443-2.148-4.443-5.332c0-3.213,1.797-5.352,4.473-5.352
		c1.68,0,3.037,0.918,3.652,2.295h0.02v-2.178h1.23v10.322c0,2.412-1.807,3.857-4.619,3.857
		C272.338,122.996,270.688,121.912,270.424,120.3z M277.992,114.05c0-2.49-1.387-4.199-3.418-4.199c-2.012,0-3.35,1.68-3.35,4.199
		c0,2.51,1.338,4.17,3.35,4.17C276.605,118.22,277.992,116.521,277.992,114.05z"/>
	<path style="fill:#454545;" d="M280.278,114.07c0-3.281,1.885-5.371,4.775-5.371s4.785,2.09,4.785,5.371s-1.895,5.381-4.785,5.381
		S280.278,117.351,280.278,114.07z M288.521,114.07c0-2.627-1.328-4.219-3.467-4.219c-2.129,0-3.457,1.602-3.457,4.219
		c0,2.627,1.328,4.219,3.457,4.219C287.192,118.289,288.521,116.697,288.521,114.07z"/>
	<path style="fill:#454545;" d="M294.4,108.699c2.129,0,3.672,1.27,3.779,3.076h-1.24c-0.127-1.191-1.094-1.982-2.578-1.982
		c-1.406,0-2.461,0.723-2.461,1.787c0,0.859,0.625,1.357,1.963,1.689l1.611,0.391c2.109,0.527,2.91,1.289,2.91,2.783
		c0,1.777-1.689,3.008-4.053,3.008c-2.256,0-3.877-1.289-4.023-3.076h1.309c0.156,1.201,1.201,1.992,2.793,1.992
		c1.572,0,2.666-0.723,2.666-1.836c0-0.889-0.537-1.377-1.963-1.729l-1.777-0.449c-1.816-0.459-2.715-1.318-2.715-2.705
		C290.621,109.91,292.232,108.699,294.4,108.699z"/>
	<path style="fill:#454545;" d="M302.888,105.867c0-0.488,0.4-0.879,0.879-0.879s0.869,0.391,0.869,0.879
		c0,0.469-0.391,0.869-0.869,0.869S302.888,106.335,302.888,105.867z M303.122,108.816h1.289v10.518h-1.289V108.816z"/>
	<path style="fill:#454545;" d="M306.033,108.816h1.211v1.963h0.039c0.586-1.309,1.836-2.08,3.535-2.08
		c2.314,0,3.799,1.484,3.799,3.867v6.768h-1.289v-6.562c0-1.855-1.084-2.92-2.871-2.92c-1.875,0-3.135,1.338-3.135,3.301v6.182
		h-1.289V108.816z"/>
	<path style="fill:#454545;" d="M321.201,119.333h-1.328v-14.092h5.039c2.754,0,4.512,1.611,4.512,4.121
		c0,1.992-1.133,3.496-3.018,3.984l3.408,5.986h-1.553l-3.242-5.771c-0.059,0-0.146,0-0.215,0h-3.604V119.333z M321.201,112.38
		h3.604c2.041,0,3.242-1.094,3.242-2.979c0-1.865-1.24-2.969-3.291-2.969h-3.555V112.38z"/>
</g>
</svg>
