<?xml version="1.0" encoding="iso-8859-1"?>
<!-- Generator: Adobe Illustrator 16.0.0, SVG Export Plug-In . SVG Version: 6.00 Build 0)  -->
<!DOCTYPE svg PUBLIC "-//W3C//DTD SVG 1.1//EN" "http://www.w3.org/Graphics/SVG/1.1/DTD/svg11.dtd">
<svg version="1.1" id="Layer_1" xmlns="http://www.w3.org/2000/svg" xmlns:xlink="http://www.w3.org/1999/xlink" x="0px" y="0px"
	 width="639.5px" height="191.25px" viewBox="0 0 639.5 191.25" style="enable-background:new 0 0 639.5 191.25;"
	 xml:space="preserve">
<g>
	<path style="fill:#BE1E2D;" d="M14.182,119.475h5.537c1.846,7.178,10.732,12.236,23.379,12.236c15.039,0,25.43-7.588,25.43-20.098
		V92.131h-0.137c-3.281,11.553-13.809,20.439-27.344,20.439c-18.525,0-31.104-15.244-31.104-37.666
		c0-22.49,12.646-37.734,31.172-37.734c13.535,0,24.062,8.887,27.549,20.645h0.205V38.127h4.99v73.145
		c0,15.928-12.715,25.156-31.104,25.156C27.102,136.428,16.164,129.592,14.182,119.475z M68.527,74.904
		c0-19.414-11.006-32.881-26.865-32.881c-15.654,0-26.318,13.33-26.318,32.881s10.664,32.812,26.318,32.812
		C57.521,107.717,68.527,94.25,68.527,74.904z"/>
	<path style="fill:#BE1E2D;" d="M90.676,119.475h5.537c1.846,7.178,10.732,12.236,23.379,12.236c15.039,0,25.43-7.588,25.43-20.098
		V92.131h-0.137c-3.281,11.553-13.809,20.439-27.344,20.439c-18.525,0-31.104-15.244-31.104-37.666
		c0-22.49,12.646-37.734,31.172-37.734c13.535,0,24.062,8.887,27.549,20.645h0.205V38.127h4.99v73.145
		c0,15.928-12.715,25.156-31.104,25.156C103.596,136.428,92.658,129.592,90.676,119.475z M145.021,74.904
		c0-19.414-11.006-32.881-26.865-32.881c-15.654,0-26.318,13.33-26.318,32.881s10.664,32.812,26.318,32.812
		C134.016,107.717,145.021,94.25,145.021,74.904z"/>
	<path style="fill:#333333;" d="M191.574,37.307c14.902,0,25.703,8.887,26.455,21.533h-8.682
		c-0.889-8.34-7.656-13.877-18.047-13.877c-9.844,0-17.227,5.059-17.227,12.51c0,6.016,4.375,9.502,13.74,11.826l11.279,2.734
		c14.766,3.691,20.371,9.023,20.371,19.482c0,12.441-11.826,21.055-28.369,21.055c-15.791,0-27.139-9.023-28.164-21.533h9.16
		c1.094,8.408,8.408,13.945,19.551,13.945c11.006,0,18.662-5.059,18.662-12.852c0-6.221-3.76-9.639-13.74-12.1l-12.441-3.145
		c-12.715-3.213-19.004-9.229-19.004-18.936C165.119,45.783,176.398,37.307,191.574,37.307z"/>
	<path style="fill:#333333;" d="M292.062,90.9c-2.188,12.578-14.287,21.67-30.283,21.67c-20.371,0-33.359-14.287-33.359-37.461
		c0-22.832,12.988-37.803,32.812-37.803c19.346,0,31.787,14.014,31.787,35.889v3.965h-55.234v0.479
		c0,16.68,9.57,26.934,24.199,26.934c11.074,0,18.936-5.605,21.123-13.672H292.062z M237.785,69.777h45.801
		c-0.137-14.629-9.16-24.473-22.49-24.473C247.902,45.305,238.605,55.148,237.785,69.777z"/>
	<path style="fill:#333333;" d="M358.986,53.371h0.205V38.127h8.613v97.754h-9.092V96.574h-0.205
		c-4.102,9.57-13.604,15.996-25.361,15.996c-18.457,0-31.24-15.176-31.24-37.666s12.783-37.598,31.445-37.598
		C345.314,37.307,354.816,43.664,358.986,53.371z M358.713,74.904c0-17.432-9.844-29.531-23.994-29.531
		c-14.082,0-23.584,11.826-23.584,29.6s9.502,29.463,23.584,29.463C348.869,104.436,358.713,92.404,358.713,74.904z"/>
	<path style="fill:#333333;" d="M384.689,8.801h9.023V111.75h-9.023V8.801z"/>
	<path style="fill:#333333;" d="M406.975,74.904c0-22.969,13.193-37.598,33.428-37.598s33.496,14.629,33.496,37.598
		s-13.262,37.666-33.496,37.666S406.975,97.873,406.975,74.904z M464.67,74.904c0-18.389-9.297-29.531-24.268-29.531
		c-14.902,0-24.199,11.211-24.199,29.531c0,18.389,9.297,29.531,24.199,29.531C455.373,104.436,464.67,93.293,464.67,74.904z"/>
	<path style="fill:#333333;" d="M486.408,118.518h9.434c1.777,6.562,9.775,10.938,20.781,10.938
		c13.672,0,22.764-7.041,22.764-18.389V96.096h-0.205c-4.102,9.502-13.535,15.996-25.293,15.996
		c-18.525,0-31.104-15.039-31.104-37.324c0-22.49,12.578-37.461,31.309-37.461c11.758,0,21.26,6.426,25.566,16.064h0.137V38.127
		h8.613v72.256c0,16.885-12.646,27.002-32.334,27.002C499.807,137.385,488.254,129.797,486.408,118.518z M539.387,74.768
		c0-17.432-9.707-29.395-23.926-29.395c-14.082,0-23.447,11.758-23.447,29.395c0,17.568,9.365,29.189,23.447,29.189
		C529.68,103.957,539.387,92.062,539.387,74.768z"/>
	<path style="fill:#333333;" d="M560.988,74.904c0-22.969,13.193-37.598,33.428-37.598s33.496,14.629,33.496,37.598
		s-13.262,37.666-33.496,37.666S560.988,97.873,560.988,74.904z M618.684,74.904c0-18.389-9.297-29.531-24.268-29.531
		c-14.902,0-24.199,11.211-24.199,29.531c0,18.389,9.297,29.531,24.199,29.531C609.387,104.436,618.684,93.293,618.684,74.904z"/>
</g>
<g>
	<path style="fill:#333333;" d="M13.551,177v-21.138h8.276c3.618,0,6.064,2.109,6.064,5.273c0,2.197-1.611,4.248-3.647,4.614v0.117
		c2.871,0.366,4.717,2.388,4.717,5.2c0,3.721-2.666,5.933-7.163,5.933H13.551z M16.188,164.974h4.219c3.12,0,4.819-1.245,4.819-3.53
		c0-2.095-1.436-3.252-3.999-3.252h-5.039V164.974z M21.402,174.671c3.179,0,4.849-1.289,4.849-3.735s-1.729-3.691-5.098-3.691
		h-4.966v7.427H21.402z"/>
	<path style="fill:#333333;" d="M44.635,172.488c-0.439,2.71-3.179,4.658-6.548,4.658c-4.438,0-7.236-3.091-7.236-7.983
		s2.812-8.101,7.119-8.101c4.219,0,6.855,2.974,6.855,7.749v0.996H33.487v0.146c0,3.003,1.846,4.951,4.658,4.951
		c1.978,0,3.516-0.938,3.97-2.417H44.635z M33.487,167.771h8.687c-0.059-2.681-1.758-4.468-4.248-4.468
		C35.45,163.304,33.663,165.105,33.487,167.771z"/>
	<path style="fill:#333333;" d="M46.788,172.503c0-2.71,2.08-4.307,5.918-4.541l4.424-0.264v-1.318c0-1.963-1.289-3.047-3.618-3.047
		c-1.831,0-3.193,0.938-3.501,2.432h-2.446c0.073-2.666,2.666-4.702,5.977-4.702c3.735,0,6.138,1.992,6.138,5.098V177h-2.417v-2.739
		h-0.059c-0.894,1.758-2.871,2.886-5.083,2.886C48.912,177.146,46.788,175.301,46.788,172.503z M57.13,170.994v-1.274l-4.131,0.264
		c-2.373,0.146-3.604,1.011-3.604,2.534c0,1.465,1.274,2.417,3.267,2.417C55.24,174.935,57.13,173.265,57.13,170.994z"/>
	<path style="fill:#333333;" d="M76.231,177h-2.402v-2.607h-0.059c-0.981,1.816-2.754,2.754-5.171,2.754
		c-3.457,0-5.61-2.227-5.61-5.815v-10.122h2.549v9.683c0,2.593,1.362,3.984,3.838,3.984c2.593,0,4.307-1.787,4.307-4.497v-9.17
		h2.549V177z"/>
	<path style="fill:#333333;" d="M83.072,157.649v3.56h3.076v2.109h-3.076v9.478c0,1.45,0.615,2.109,1.963,2.109
		c0.308,0,0.923-0.044,1.099-0.073v2.153c-0.308,0.073-1.04,0.132-1.641,0.132c-2.856,0-3.97-1.187-3.97-4.219v-9.58h-2.197v-2.109
		h2.197v-3.56H83.072z"/>
	<path style="fill:#333333;" d="M88.785,157.049c0-0.894,0.732-1.611,1.611-1.611c0.894,0,1.611,0.718,1.611,1.611
		c0,0.879-0.718,1.611-1.611,1.611C89.518,158.66,88.785,157.928,88.785,157.049z M89.122,161.209h2.549V177h-2.549V161.209z"/>
	<path style="fill:#333333;" d="M96.109,163.318h-2.197v-2.109h2.197v-1.465c0-2.915,1.274-4.219,4.204-4.219
		c0.498,0,0.938,0.044,1.421,0.132v2.109c-0.337-0.073-0.791-0.117-1.187-0.117c-1.318,0-1.875,0.615-1.89,2.095v1.465h3.076v2.109
		h-3.076V177h-2.549V163.318z"/>
	<path style="fill:#333333;" d="M117.657,177h-2.402v-2.607h-0.059c-0.981,1.816-2.754,2.754-5.171,2.754
		c-3.457,0-5.61-2.227-5.61-5.815v-10.122h2.549v9.683c0,2.593,1.362,3.984,3.838,3.984c2.593,0,4.307-1.787,4.307-4.497v-9.17
		h2.549V177z"/>
	<path style="fill:#333333;" d="M121.261,154.939h2.549V177h-2.549V154.939z"/>
	<path style="fill:#333333;" d="M133.873,172.503c0-2.71,2.08-4.307,5.918-4.541l4.424-0.264v-1.318
		c0-1.963-1.289-3.047-3.618-3.047c-1.831,0-3.193,0.938-3.501,2.432h-2.446c0.073-2.666,2.666-4.702,5.977-4.702
		c3.735,0,6.138,1.992,6.138,5.098V177h-2.417v-2.739h-0.059c-0.894,1.758-2.871,2.886-5.083,2.886
		C135.997,177.146,133.873,175.301,133.873,172.503z M144.215,170.994v-1.274l-4.131,0.264c-2.373,0.146-3.604,1.011-3.604,2.534
		c0,1.465,1.274,2.417,3.267,2.417C142.325,174.935,144.215,173.265,144.215,170.994z"/>
	<path style="fill:#333333;" d="M150.147,161.209h2.402v2.563h0.059c0.996-1.787,2.71-2.71,5.156-2.71
		c3.472,0,5.625,2.227,5.625,5.815V177h-2.549v-9.683c0-2.578-1.348-3.984-3.838-3.984c-2.593,0-4.307,1.787-4.307,4.497V177h-2.549
		V161.209z"/>
	<path style="fill:#333333;" d="M165.997,169.104c0-4.819,2.783-8.042,6.709-8.042c2.256,0,4.072,0.981,5.039,2.71h0.059v-8.833
		h2.549V177h-2.432v-2.666h-0.044c-1.025,1.816-2.827,2.812-5.112,2.812C168.795,177.146,165.997,173.924,165.997,169.104z
		 M168.604,169.104c0,3.501,1.846,5.771,4.614,5.771c2.739,0,4.6-2.329,4.6-5.771c0-3.428-1.86-5.771-4.6-5.771
		C170.45,163.333,168.604,165.618,168.604,169.104z"/>
	<path style="fill:#333333;" d="M198.18,177h-2.578l-5.83-15.791h2.666l4.424,13.037h0.059l4.438-13.037h2.651L198.18,177z"/>
	<path style="fill:#333333;" d="M218.673,172.488c-0.439,2.71-3.179,4.658-6.548,4.658c-4.438,0-7.236-3.091-7.236-7.983
		s2.812-8.101,7.119-8.101c4.219,0,6.855,2.974,6.855,7.749v0.996h-11.338v0.146c0,3.003,1.846,4.951,4.658,4.951
		c1.978,0,3.516-0.938,3.97-2.417H218.673z M207.525,167.771h8.687c-0.059-2.681-1.758-4.468-4.248-4.468
		C209.488,163.304,207.701,165.105,207.525,167.771z"/>
	<path style="fill:#333333;" d="M221.544,161.209h2.402v2.563h0.059c0.469-1.655,1.978-2.71,3.823-2.71
		c0.308,0,0.762,0.044,0.981,0.103v2.52c-0.205-0.088-0.879-0.176-1.318-0.176c-2.051,0-3.398,1.494-3.398,3.721V177h-2.549V161.209
		z"/>
	<path style="fill:#333333;" d="M236.632,161.077c3.208,0,5.64,1.919,5.742,4.512h-2.446c-0.161-1.479-1.45-2.402-3.384-2.402
		c-1.948,0-3.252,0.923-3.252,2.3c0,1.069,0.85,1.787,2.666,2.241l2.402,0.601c3.193,0.806,4.336,1.919,4.336,4.219
		c0,2.695-2.593,4.6-6.24,4.6c-3.398,0-5.859-1.846-6.108-4.585h2.563c0.264,1.611,1.567,2.476,3.721,2.476s3.501-0.894,3.501-2.314
		c0-1.113-0.659-1.699-2.461-2.168l-2.769-0.718c-2.769-0.718-4.116-2.109-4.116-4.219
		C230.787,162.952,233.204,161.077,236.632,161.077z"/>
	<path style="fill:#333333;" d="M244.747,172.503c0-2.71,2.08-4.307,5.918-4.541l4.424-0.264v-1.318
		c0-1.963-1.289-3.047-3.618-3.047c-1.831,0-3.193,0.938-3.501,2.432h-2.446c0.073-2.666,2.666-4.702,5.977-4.702
		c3.735,0,6.138,1.992,6.138,5.098V177h-2.417v-2.739h-0.059c-0.894,1.758-2.871,2.886-5.083,2.886
		C246.871,177.146,244.747,175.301,244.747,172.503z M255.089,170.994v-1.274l-4.131,0.264c-2.373,0.146-3.604,1.011-3.604,2.534
		c0,1.465,1.274,2.417,3.267,2.417C253.199,174.935,255.089,173.265,255.089,170.994z"/>
	<path style="fill:#333333;" d="M264.405,157.649v3.56h3.076v2.109h-3.076v9.478c0,1.45,0.615,2.109,1.963,2.109
		c0.308,0,0.923-0.044,1.099-0.073v2.153c-0.308,0.073-1.04,0.132-1.641,0.132c-2.856,0-3.97-1.187-3.97-4.219v-9.58h-2.197v-2.109
		h2.197v-3.56H264.405z"/>
	<path style="fill:#333333;" d="M270.118,157.049c0-0.894,0.732-1.611,1.611-1.611c0.894,0,1.611,0.718,1.611,1.611
		c0,0.879-0.718,1.611-1.611,1.611C270.851,158.66,270.118,157.928,270.118,157.049z M270.455,161.209h2.549V177h-2.549V161.209z"/>
	<path style="fill:#333333;" d="M276.754,154.939h2.549V177h-2.549V154.939z"/>
	<path style="fill:#333333;" d="M295.914,172.488c-0.439,2.71-3.179,4.658-6.548,4.658c-4.438,0-7.236-3.091-7.236-7.983
		s2.812-8.101,7.119-8.101c4.219,0,6.855,2.974,6.855,7.749v0.996h-11.338v0.146c0,3.003,1.846,4.951,4.658,4.951
		c1.978,0,3.516-0.938,3.97-2.417H295.914z M284.767,167.771h8.687c-0.059-2.681-1.758-4.468-4.248-4.468
		C286.729,163.304,284.942,165.105,284.767,167.771z"/>
	<path style="fill:#333333;" d="M311.544,161.077c3.208,0,5.64,1.919,5.742,4.512h-2.446c-0.161-1.479-1.45-2.402-3.384-2.402
		c-1.948,0-3.252,0.923-3.252,2.3c0,1.069,0.85,1.787,2.666,2.241l2.402,0.601c3.193,0.806,4.336,1.919,4.336,4.219
		c0,2.695-2.593,4.6-6.24,4.6c-3.398,0-5.859-1.846-6.108-4.585h2.563c0.264,1.611,1.567,2.476,3.721,2.476s3.501-0.894,3.501-2.314
		c0-1.113-0.659-1.699-2.461-2.168l-2.769-0.718c-2.769-0.718-4.116-2.109-4.116-4.219
		C305.699,162.952,308.116,161.077,311.544,161.077z"/>
	<path style="fill:#333333;" d="M333.385,172.488c-0.439,2.71-3.179,4.658-6.548,4.658c-4.438,0-7.236-3.091-7.236-7.983
		s2.812-8.101,7.119-8.101c4.219,0,6.855,2.974,6.855,7.749v0.996h-11.338v0.146c0,3.003,1.846,4.951,4.658,4.951
		c1.978,0,3.516-0.938,3.97-2.417H333.385z M322.237,167.771h8.687c-0.059-2.681-1.758-4.468-4.248-4.468
		C324.2,163.304,322.413,165.105,322.237,167.771z"/>
	<path style="fill:#333333;" d="M347.359,163.772h0.044v-2.563h2.432v21.064h-2.549v-7.837h-0.059
		c-0.996,1.729-2.842,2.71-5.068,2.71c-3.97,0-6.68-3.223-6.68-8.042c0-4.834,2.71-8.042,6.738-8.042
		C344.503,161.062,346.349,162.029,347.359,163.772z M347.286,169.104c0-3.413-1.89-5.771-4.644-5.771s-4.556,2.271-4.556,5.771
		c0,3.516,1.802,5.771,4.556,5.771S347.286,172.532,347.286,169.104z"/>
	<path style="fill:#333333;" d="M366.461,177h-2.402v-2.607H364c-0.981,1.816-2.754,2.754-5.171,2.754
		c-3.457,0-5.61-2.227-5.61-5.815v-10.122h2.549v9.683c0,2.593,1.362,3.984,3.838,3.984c2.593,0,4.307-1.787,4.307-4.497v-9.17
		h2.549V177z"/>
	<path style="fill:#333333;" d="M382.926,172.488c-0.439,2.71-3.179,4.658-6.548,4.658c-4.438,0-7.236-3.091-7.236-7.983
		s2.812-8.101,7.119-8.101c4.219,0,6.855,2.974,6.855,7.749v0.996h-11.338v0.146c0,3.003,1.846,4.951,4.658,4.951
		c1.978,0,3.516-0.938,3.97-2.417H382.926z M371.778,167.771h8.687c-0.059-2.681-1.758-4.468-4.248-4.468
		C373.741,163.304,371.954,165.105,371.778,167.771z"/>
	<path style="fill:#333333;" d="M385.797,161.209h2.402v2.563h0.059c0.996-1.787,2.71-2.71,5.156-2.71
		c3.472,0,5.625,2.227,5.625,5.815V177h-2.549v-9.683c0-2.578-1.348-3.984-3.838-3.984c-2.593,0-4.307,1.787-4.307,4.497V177h-2.549
		V161.209z"/>
	<path style="fill:#333333;" d="M412.97,166.351c-0.322-1.685-1.729-3.018-4.102-3.018c-2.754,0-4.629,2.285-4.629,5.771
		c0,3.589,1.904,5.771,4.658,5.771c2.197,0,3.662-1.025,4.102-2.93h2.505c-0.425,3.076-3.018,5.2-6.621,5.2
		c-4.336,0-7.236-3.076-7.236-8.042c0-4.849,2.886-8.042,7.207-8.042c3.911,0,6.299,2.52,6.621,5.288H412.97z"/>
	<path style="fill:#333333;" d="M430.958,172.488c-0.439,2.71-3.179,4.658-6.548,4.658c-4.438,0-7.236-3.091-7.236-7.983
		s2.812-8.101,7.119-8.101c4.219,0,6.855,2.974,6.855,7.749v0.996h-11.338v0.146c0,3.003,1.846,4.951,4.658,4.951
		c1.978,0,3.516-0.938,3.97-2.417H430.958z M419.811,167.771h8.687c-0.059-2.681-1.758-4.468-4.248-4.468
		C421.773,163.304,419.986,165.105,419.811,167.771z"/>
	<path style="fill:#333333;" d="M441.153,154.939h2.549V177h-2.549V154.939z"/>
	<path style="fill:#333333;" d="M446.529,169.104c0-4.907,2.842-8.042,7.28-8.042s7.28,3.135,7.28,8.042
		c0,4.893-2.842,8.042-7.28,8.042S446.529,173.997,446.529,169.104z M458.497,169.104c0-3.633-1.743-5.771-4.688-5.771
		s-4.688,2.153-4.688,5.771s1.758,5.771,4.688,5.771C456.754,174.876,458.497,172.723,458.497,169.104z"/>
	<path style="fill:#333333;" d="M463.668,178.289h2.651c0.381,1.318,1.948,2.139,4.028,2.139c2.725,0,4.453-1.421,4.453-3.662
		v-2.476h-0.059c-0.996,1.714-2.856,2.71-5.068,2.71c-3.999,0-6.68-3.179-6.68-7.954c0-4.819,2.681-7.983,6.738-7.983
		c2.227,0,4.087,0.981,5.142,2.71h0.044v-2.563h2.432v15.352c0,3.779-2.71,6.079-7.148,6.079
		C466.627,182.64,464.034,180.911,463.668,178.289z M474.801,169.046c0-3.398-1.875-5.713-4.644-5.713
		c-2.754,0-4.556,2.256-4.556,5.713c0,3.442,1.802,5.684,4.556,5.684C472.926,174.729,474.801,172.43,474.801,169.046z"/>
	<path style="fill:#333333;" d="M480.03,169.104c0-4.907,2.842-8.042,7.28-8.042s7.28,3.135,7.28,8.042
		c0,4.893-2.842,8.042-7.28,8.042S480.03,173.997,480.03,169.104z M491.998,169.104c0-3.633-1.743-5.771-4.688-5.771
		s-4.688,2.153-4.688,5.771s1.758,5.771,4.688,5.771C490.255,174.876,491.998,172.723,491.998,169.104z"/>
	<path style="fill:#333333;" d="M502.853,161.077c3.208,0,5.64,1.919,5.742,4.512h-2.446c-0.161-1.479-1.45-2.402-3.384-2.402
		c-1.948,0-3.252,0.923-3.252,2.3c0,1.069,0.85,1.787,2.666,2.241l2.402,0.601c3.193,0.806,4.336,1.919,4.336,4.219
		c0,2.695-2.593,4.6-6.24,4.6c-3.398,0-5.859-1.846-6.108-4.585h2.563c0.264,1.611,1.567,2.476,3.721,2.476s3.501-0.894,3.501-2.314
		c0-1.113-0.659-1.699-2.461-2.168l-2.769-0.718c-2.769-0.718-4.116-2.109-4.116-4.219
		C497.008,162.952,499.425,161.077,502.853,161.077z"/>
	<path style="fill:#333333;" d="M518.673,157.049c0-0.894,0.732-1.611,1.611-1.611c0.894,0,1.611,0.718,1.611,1.611
		c0,0.879-0.718,1.611-1.611,1.611C519.405,158.66,518.673,157.928,518.673,157.049z M519.01,161.209h2.549V177h-2.549V161.209z"/>
	<path style="fill:#333333;" d="M525.162,161.209h2.402v2.563h0.059c0.996-1.787,2.71-2.71,5.156-2.71
		c3.472,0,5.625,2.227,5.625,5.815V177h-2.549v-9.683c0-2.578-1.348-3.984-3.838-3.984c-2.593,0-4.307,1.787-4.307,4.497V177h-2.549
		V161.209z"/>
	<path style="fill:#333333;" d="M551.925,177h-2.637v-21.138h8.071c4.072,0,6.738,2.49,6.738,6.299c0,2.944-1.597,5.229-4.248,6.064
		l4.893,8.774h-3.091l-4.526-8.364h-5.2V177z M551.925,166.307h5.2c2.71,0,4.248-1.465,4.248-4.058c0-2.534-1.641-4.043-4.365-4.043
		h-5.083V166.307z"/>
</g>
<g>
</g>
</svg>
