<?xml version="1.0" encoding="iso-8859-1"?>
<!-- Generator: Adobe Illustrator 16.0.0, SVG Export Plug-In . SVG Version: 6.00 Build 0)  -->
<!DOCTYPE svg PUBLIC "-//W3C//DTD SVG 1.1//EN" "http://www.w3.org/Graphics/SVG/1.1/DTD/svg11.dtd">
<svg version="1.1" id="Layer_1" xmlns="http://www.w3.org/2000/svg" xmlns:xlink="http://www.w3.org/1999/xlink" x="0px" y="0px"
	 width="416.591px" height="124.5px" viewBox="0 0 416.591 124.5" style="enable-background:new 0 0 416.591 124.5;"
	 xml:space="preserve">
<g>
	<g>
		<path style="fill:#DF1F26;" d="M5.59,78.642h14.062c0.928,3.564,5.42,5.811,11.035,5.811c7.227,0,11.963-3.711,11.963-9.766
			v-9.619h-0.293c-2.588,5.762-8.887,9.424-16.65,9.424c-13.086,0-21.875-10.156-21.875-26.709c0-16.846,8.496-27.344,22.119-27.344
			c7.715,0,13.818,3.857,16.65,9.814h0.244v-9.18h14.062v52.539c0,12.793-10.4,20.898-26.562,20.898
			C16.234,94.511,6.322,88.31,5.59,78.642z M42.699,47.88c0-9.668-4.785-15.918-12.207-15.918c-7.373,0-12.061,6.152-12.061,15.869
			c0,9.766,4.639,15.625,12.061,15.625S42.699,57.5,42.699,47.88z"/>
	</g>
	<g>
		<path style="fill:#2DA6DF;" d="M47.09,78.642h14.062c0.928,3.564,5.42,5.811,11.035,5.811c7.227,0,11.963-3.711,11.963-9.766
			v-9.619h-0.293c-2.588,5.762-8.887,9.424-16.65,9.424c-13.086,0-21.875-10.156-21.875-26.709c0-16.846,8.496-27.344,22.119-27.344
			c7.715,0,13.818,3.857,16.65,9.814h0.244v-9.18h14.062v52.539c0,12.793-10.4,20.898-26.562,20.898
			C57.734,94.511,47.822,88.31,47.09,78.642z M84.199,47.88c0-9.668-4.785-15.918-12.207-15.918
			c-7.373,0-12.061,6.152-12.061,15.869c0,9.766,4.639,15.625,12.061,15.625S84.199,57.5,84.199,47.88z"/>
	</g>
	<g>
		<path style="fill:#322E7F;" d="M47.09,78.642c0.262,3.458,1.716,6.463,4.1,8.909c2.527-2.427,4.277-5.429,5.126-8.909H47.09z"/>
		<path style="fill:#322E7F;" d="M56.908,71.953V23.032c-7.316,4.092-11.576,12.829-11.576,24.751
			C45.332,59.475,49.721,67.969,56.908,71.953z"/>
	</g>
</g>
<g>
	<path style="fill:#454545;" d="M124.383,22.586c10.645,0,18.359,6.348,18.896,15.381h-6.201c-0.635-5.957-5.469-9.912-12.891-9.912
		c-7.031,0-12.305,3.613-12.305,8.936c0,4.297,3.125,6.787,9.814,8.447l8.057,1.953c10.547,2.637,14.551,6.445,14.551,13.916
		c0,8.887-8.447,15.039-20.264,15.039c-11.279,0-19.385-6.445-20.117-15.381h6.543c0.781,6.006,6.006,9.961,13.965,9.961
		c7.861,0,13.33-3.613,13.33-9.18c0-4.443-2.686-6.885-9.814-8.643l-8.887-2.246c-9.082-2.295-13.574-6.592-13.574-13.525
		C105.486,28.641,113.543,22.586,124.383,22.586z"/>
	<path style="fill:#454545;" d="M192.16,60.867c-1.562,8.984-10.205,15.479-21.631,15.479c-14.551,0-23.828-10.205-23.828-26.758
		c0-16.309,9.277-27.002,23.438-27.002c13.818,0,22.705,10.01,22.705,25.635v2.832h-39.453v0.342
		c0,11.914,6.836,19.238,17.285,19.238c7.91,0,13.525-4.004,15.088-9.766H192.16z M153.391,45.779h32.715
		c-0.098-10.449-6.543-17.48-16.064-17.48C160.617,28.299,153.977,35.33,153.391,45.779z"/>
	<path style="fill:#454545;" d="M235.963,34.061h0.146V23.172h6.152v69.824h-6.494V64.92h-0.146
		c-2.93,6.836-9.717,11.426-18.115,11.426c-13.184,0-22.314-10.84-22.314-26.904s9.131-26.855,22.461-26.855
		C226.197,22.586,232.984,27.127,235.963,34.061z M235.768,49.441c0-12.451-7.031-21.094-17.139-21.094
		c-10.059,0-16.846,8.447-16.846,21.143s6.787,21.045,16.846,21.045C228.736,70.535,235.768,61.941,235.768,49.441z"/>
	<path style="fill:#454545;" d="M250.322,2.225h6.445V75.76h-6.445V2.225z"/>
	<path style="fill:#454545;" d="M262.24,49.441c0-16.406,9.424-26.855,23.877-26.855s23.926,10.449,23.926,26.855
		s-9.473,26.904-23.926,26.904S262.24,65.848,262.24,49.441z M303.451,49.441c0-13.135-6.641-21.094-17.334-21.094
		c-10.645,0-17.285,8.008-17.285,21.094c0,13.135,6.641,21.094,17.285,21.094C296.811,70.535,303.451,62.576,303.451,49.441z"/>
	<path style="fill:#454545;" d="M314.979,80.594h6.738c1.27,4.688,6.982,7.812,14.844,7.812c9.766,0,16.26-5.029,16.26-13.135
		V64.578h-0.146c-2.93,6.787-9.668,11.426-18.066,11.426c-13.232,0-22.217-10.742-22.217-26.66c0-16.064,8.984-26.758,22.363-26.758
		c8.398,0,15.186,4.59,18.262,11.475h0.098V23.172h6.152v51.611c0,12.061-9.033,19.287-23.096,19.287
		C324.549,94.07,316.297,88.65,314.979,80.594z M352.82,49.344c0-12.451-6.934-20.996-17.09-20.996
		c-10.059,0-16.748,8.398-16.748,20.996c0,12.549,6.689,20.85,16.748,20.85C345.887,70.193,352.82,61.697,352.82,49.344z"/>
	<path style="fill:#454545;" d="M364.25,49.441c0-16.406,9.424-26.855,23.877-26.855s23.926,10.449,23.926,26.855
		s-9.473,26.904-23.926,26.904S364.25,65.848,364.25,49.441z M405.461,49.441c0-13.135-6.641-21.094-17.334-21.094
		c-10.645,0-17.285,8.008-17.285,21.094c0,13.135,6.641,21.094,17.285,21.094C398.82,70.535,405.461,62.576,405.461,49.441z"/>
</g>
<g>
	<path d="M13.318,104.908c2.686,0,4.521,1.768,4.521,4.385s-1.846,4.395-4.531,4.395H9.646V119H8.318v-14.092H13.318z
		 M9.646,112.496h3.359c2.168,0,3.467-1.201,3.467-3.203s-1.289-3.193-3.467-3.193H9.646V112.496z"/>
	<path d="M27.75,119h-1.221v-1.973H26.5c-0.576,1.289-1.904,2.09-3.574,2.09c-2.285,0-3.77-1.484-3.77-3.857v-6.777h1.289v6.562
		c0,1.875,1.074,2.91,2.852,2.91c1.836,0,3.154-1.299,3.154-3.291v-6.182h1.299V119z"/>
	<path d="M30.922,116.773h-0.029V119h-1.23v-14.707h1.289v6.348h0.029c0.605-1.416,1.953-2.275,3.613-2.275
		c2.637,0,4.443,2.158,4.443,5.371c0,3.223-1.807,5.381-4.463,5.381C32.895,119.117,31.547,118.248,30.922,116.773z M30.941,113.746
		c0,2.48,1.396,4.209,3.408,4.209c2.021,0,3.369-1.68,3.369-4.219c0-2.529-1.348-4.219-3.359-4.219
		C32.338,109.518,30.941,111.256,30.941,113.746z"/>
	<path d="M40.432,104.293h1.289V119h-1.289V104.293z"/>
	<path d="M43.506,105.533c0-0.488,0.4-0.879,0.879-0.879s0.869,0.391,0.869,0.879c0,0.469-0.391,0.869-0.869,0.869
		S43.506,106.002,43.506,105.533z M43.74,108.482h1.289V119H43.74V108.482z"/>
	<path d="M54.197,111.793c-0.254-1.289-1.357-2.275-3.037-2.275c-2.061,0-3.418,1.66-3.418,4.219c0,2.607,1.367,4.219,3.428,4.219
		c1.611,0,2.734-0.82,3.037-2.197h1.279c-0.303,1.982-1.992,3.359-4.316,3.359c-2.861,0-4.746-2.061-4.746-5.381
		c0-3.252,1.875-5.371,4.727-5.371c2.461,0,4.072,1.572,4.326,3.428H54.197z"/>
	<path d="M56.246,116.07c0-1.797,1.348-2.842,3.867-3.018l3.232-0.215v-0.898c0-1.533-0.967-2.422-2.666-2.422
		c-1.465,0-2.49,0.752-2.725,2.002h-1.24c0.107-1.846,1.768-3.154,3.975-3.154c2.412,0,3.945,1.348,3.945,3.467V119h-1.23v-2.012
		h-0.029c-0.566,1.279-1.992,2.129-3.604,2.129C57.672,119.117,56.246,117.887,56.246,116.07z M63.346,115.045v-1.162l-3.076,0.215
		c-1.768,0.117-2.705,0.801-2.705,1.982c0,1.133,0.996,1.904,2.461,1.904C61.91,117.984,63.346,116.705,63.346,115.045z"/>
	<path d="M68.256,105.963v2.52h2.109v1.084h-2.109v6.797c0,1.094,0.43,1.562,1.406,1.562c0.137,0,0.674-0.029,0.752-0.039v1.104
		c-0.137,0.039-0.732,0.068-1.006,0.068c-1.738,0-2.441-0.752-2.441-2.646v-6.846h-1.504v-1.084h1.504v-2.52H68.256z"/>
	<path d="M71.604,105.533c0-0.488,0.4-0.879,0.879-0.879s0.869,0.391,0.869,0.879c0,0.469-0.391,0.869-0.869,0.869
		S71.604,106.002,71.604,105.533z M71.838,108.482h1.289V119h-1.289V108.482z"/>
	<path d="M74.521,113.736c0-3.281,1.885-5.371,4.775-5.371s4.785,2.09,4.785,5.371s-1.895,5.381-4.785,5.381
		S74.521,117.018,74.521,113.736z M82.764,113.736c0-2.627-1.328-4.219-3.467-4.219c-2.129,0-3.457,1.602-3.457,4.219
		c0,2.627,1.328,4.219,3.457,4.219C81.436,117.955,82.764,116.363,82.764,113.736z"/>
	<path d="M85.379,108.482h1.211v1.963h0.039c0.586-1.309,1.836-2.08,3.535-2.08c2.314,0,3.799,1.484,3.799,3.867V119h-1.289v-6.562
		c0-1.855-1.084-2.92-2.871-2.92c-1.875,0-3.135,1.338-3.135,3.301V119h-1.289V108.482z"/>
	<path d="M95.631,114.02v-1.211h6.406v1.211H95.631z"/>
	<path d="M103.764,108.482h1.211v1.865h0.039c0.361-1.25,1.357-1.982,2.666-1.982c0.273,0,0.615,0.059,0.781,0.107v1.289
		c-0.166-0.078-0.596-0.156-0.957-0.156c-1.494,0-2.451,1.172-2.451,2.871V119h-1.289V108.482z"/>
	<path d="M117.414,116.021c-0.312,1.797-2.041,3.096-4.326,3.096c-2.91,0-4.766-2.041-4.766-5.352c0-3.262,1.855-5.4,4.688-5.4
		c2.764,0,4.541,2.002,4.541,5.127v0.566h-7.891v0.068c0,2.383,1.367,3.848,3.457,3.848c1.582,0,2.705-0.801,3.018-1.953H117.414z
		 M109.66,113.004h6.543c-0.02-2.09-1.309-3.496-3.213-3.496C111.105,109.508,109.777,110.914,109.66,113.004z"/>
	<path d="M118.428,116.07c0-1.797,1.348-2.842,3.867-3.018l3.232-0.215v-0.898c0-1.533-0.967-2.422-2.666-2.422
		c-1.465,0-2.49,0.752-2.725,2.002h-1.24c0.107-1.846,1.768-3.154,3.975-3.154c2.412,0,3.945,1.348,3.945,3.467V119h-1.23v-2.012
		h-0.029c-0.566,1.279-1.992,2.129-3.604,2.129C119.854,119.117,118.428,117.887,118.428,116.07z M125.527,115.045v-1.162
		l-3.076,0.215c-1.768,0.117-2.705,0.801-2.705,1.982c0,1.133,0.996,1.904,2.461,1.904
		C124.092,117.984,125.527,116.705,125.527,115.045z"/>
	<path d="M128.055,113.736c0-3.213,1.855-5.371,4.473-5.371c1.699,0,3.047,0.918,3.613,2.275h0.029v-6.348h1.299V119h-1.23v-2.236
		h-0.029c-0.605,1.426-1.943,2.354-3.652,2.354C129.92,119.117,128.055,116.949,128.055,113.736z M129.373,113.736
		c0,2.539,1.377,4.219,3.389,4.219c2.021,0,3.418-1.709,3.418-4.219c0-2.49-1.396-4.219-3.418-4.219
		C130.75,109.518,129.373,111.207,129.373,113.736z"/>
	<path d="M139.518,122.584v-1.104c0.166,0.039,0.42,0.068,0.635,0.068c0.957,0,1.484-0.498,1.953-1.826l0.234-0.654l-3.955-10.586
		h1.387l3.223,9.209h0.029l3.232-9.209h1.367l-4.102,11.025c-0.918,2.471-1.65,3.154-3.359,3.154
		C139.957,122.662,139.674,122.623,139.518,122.584z"/>
	<path d="M155.949,108.365c2.129,0,3.672,1.27,3.779,3.076h-1.24c-0.127-1.191-1.094-1.982-2.578-1.982
		c-1.406,0-2.461,0.723-2.461,1.787c0,0.859,0.625,1.357,1.963,1.689l1.611,0.391c2.109,0.527,2.91,1.289,2.91,2.783
		c0,1.777-1.689,3.008-4.053,3.008c-2.256,0-3.877-1.289-4.023-3.076h1.309c0.156,1.201,1.201,1.992,2.793,1.992
		c1.572,0,2.666-0.723,2.666-1.836c0-0.889-0.537-1.377-1.963-1.729l-1.777-0.449c-1.816-0.459-2.715-1.318-2.715-2.705
		C152.17,109.576,153.781,108.365,155.949,108.365z"/>
	<path d="M169.805,116.021c-0.312,1.797-2.041,3.096-4.326,3.096c-2.91,0-4.766-2.041-4.766-5.352c0-3.262,1.855-5.4,4.688-5.4
		c2.764,0,4.541,2.002,4.541,5.127v0.566h-7.891v0.068c0,2.383,1.367,3.848,3.457,3.848c1.582,0,2.705-0.801,3.018-1.953H169.805z
		 M162.051,113.004h6.543c-0.02-2.09-1.309-3.496-3.213-3.496C163.496,109.508,162.168,110.914,162.051,113.004z"/>
	<path d="M178.865,110.66h0.029v-2.178h1.23v13.965h-1.299v-5.615h-0.029c-0.586,1.367-1.943,2.285-3.623,2.285
		c-2.637,0-4.463-2.168-4.463-5.381s1.826-5.371,4.492-5.371C176.912,108.365,178.27,109.273,178.865,110.66z M178.826,113.736
		c0-2.49-1.406-4.219-3.428-4.219c-2.012,0-3.369,1.689-3.369,4.229s1.357,4.209,3.369,4.209
		C177.42,117.955,178.826,116.236,178.826,113.736z"/>
	<path d="M190.475,119h-1.221v-1.973h-0.029c-0.576,1.289-1.904,2.09-3.574,2.09c-2.285,0-3.77-1.484-3.77-3.857v-6.777h1.289v6.562
		c0,1.875,1.074,2.91,2.852,2.91c1.836,0,3.154-1.299,3.154-3.291v-6.182h1.299V119z"/>
	<path d="M200.854,116.021c-0.312,1.797-2.041,3.096-4.326,3.096c-2.91,0-4.766-2.041-4.766-5.352c0-3.262,1.855-5.4,4.688-5.4
		c2.764,0,4.541,2.002,4.541,5.127v0.566H193.1v0.068c0,2.383,1.367,3.848,3.457,3.848c1.582,0,2.705-0.801,3.018-1.953H200.854z
		 M193.1,113.004h6.543c-0.02-2.09-1.309-3.496-3.213-3.496C194.545,109.508,193.217,110.914,193.1,113.004z"/>
	<path d="M202.287,108.482h1.211v1.963h0.039c0.586-1.309,1.836-2.08,3.535-2.08c2.314,0,3.799,1.484,3.799,3.867V119h-1.289v-6.562
		c0-1.855-1.084-2.92-2.871-2.92c-1.875,0-3.135,1.338-3.135,3.301V119h-1.289V108.482z"/>
	<path d="M219.883,111.793c-0.254-1.289-1.357-2.275-3.037-2.275c-2.061,0-3.418,1.66-3.418,4.219c0,2.607,1.367,4.219,3.428,4.219
		c1.611,0,2.734-0.82,3.037-2.197h1.279c-0.303,1.982-1.992,3.359-4.316,3.359c-2.861,0-4.746-2.061-4.746-5.381
		c0-3.252,1.875-5.371,4.727-5.371c2.461,0,4.072,1.572,4.326,3.428H219.883z"/>
	<path d="M230.916,116.021c-0.312,1.797-2.041,3.096-4.326,3.096c-2.91,0-4.766-2.041-4.766-5.352c0-3.262,1.855-5.4,4.688-5.4
		c2.764,0,4.541,2.002,4.541,5.127v0.566h-7.891v0.068c0,2.383,1.367,3.848,3.457,3.848c1.582,0,2.705-0.801,3.018-1.953H230.916z
		 M223.162,113.004h6.543c-0.02-2.09-1.309-3.496-3.213-3.496C224.607,109.508,223.279,110.914,223.162,113.004z"/>
	<path d="M236.381,104.293h1.289V119h-1.289V104.293z"/>
	<path d="M239.064,113.736c0-3.281,1.885-5.371,4.775-5.371s4.785,2.09,4.785,5.371s-1.895,5.381-4.785,5.381
		S239.064,117.018,239.064,113.736z M247.307,113.736c0-2.627-1.328-4.219-3.467-4.219c-2.129,0-3.457,1.602-3.457,4.219
		c0,2.627,1.328,4.219,3.457,4.219C245.979,117.955,247.307,116.363,247.307,113.736z"/>
	<path d="M249.912,119.967h1.348c0.254,0.938,1.396,1.562,2.969,1.562c1.953,0,3.252-1.006,3.252-2.627v-2.139h-0.029
		c-0.586,1.357-1.934,2.285-3.613,2.285c-2.646,0-4.443-2.148-4.443-5.332c0-3.213,1.797-5.352,4.473-5.352
		c1.68,0,3.037,0.918,3.652,2.295h0.02v-2.178h1.23v10.322c0,2.412-1.807,3.857-4.619,3.857
		C251.826,122.662,250.176,121.578,249.912,119.967z M257.48,113.717c0-2.49-1.387-4.199-3.418-4.199c-2.012,0-3.35,1.68-3.35,4.199
		c0,2.51,1.338,4.17,3.35,4.17C256.094,117.887,257.48,116.188,257.48,113.717z"/>
	<path d="M260.066,113.736c0-3.281,1.885-5.371,4.775-5.371s4.785,2.09,4.785,5.371s-1.895,5.381-4.785,5.381
		S260.066,117.018,260.066,113.736z M268.309,113.736c0-2.627-1.328-4.219-3.467-4.219c-2.129,0-3.457,1.602-3.457,4.219
		c0,2.627,1.328,4.219,3.457,4.219C266.98,117.955,268.309,116.363,268.309,113.736z"/>
	<path d="M274.488,108.365c2.129,0,3.672,1.27,3.779,3.076h-1.24c-0.127-1.191-1.094-1.982-2.578-1.982
		c-1.406,0-2.461,0.723-2.461,1.787c0,0.859,0.625,1.357,1.963,1.689l1.611,0.391c2.109,0.527,2.91,1.289,2.91,2.783
		c0,1.777-1.689,3.008-4.053,3.008c-2.256,0-3.877-1.289-4.023-3.076h1.309c0.156,1.201,1.201,1.992,2.793,1.992
		c1.572,0,2.666-0.723,2.666-1.836c0-0.889-0.537-1.377-1.963-1.729l-1.777-0.449c-1.816-0.459-2.715-1.318-2.715-2.705
		C270.709,109.576,272.32,108.365,274.488,108.365z"/>
	<path d="M283.576,105.533c0-0.488,0.4-0.879,0.879-0.879s0.869,0.391,0.869,0.879c0,0.469-0.391,0.869-0.869,0.869
		S283.576,106.002,283.576,105.533z M283.811,108.482h1.289V119h-1.289V108.482z"/>
	<path d="M287.021,108.482h1.211v1.963h0.039c0.586-1.309,1.836-2.08,3.535-2.08c2.314,0,3.799,1.484,3.799,3.867V119h-1.289v-6.562
		c0-1.855-1.084-2.92-2.871-2.92c-1.875,0-3.135,1.338-3.135,3.301V119h-1.289V108.482z"/>
	<path d="M302.789,119h-1.328v-14.092h5.039c2.754,0,4.512,1.611,4.512,4.121c0,1.992-1.133,3.496-3.018,3.984l3.408,5.986h-1.553
		l-3.242-5.771c-0.059,0-0.146,0-0.215,0h-3.604V119z M302.789,112.047h3.604c2.041,0,3.242-1.094,3.242-2.979
		c0-1.865-1.24-2.969-3.291-2.969h-3.555V112.047z"/>
</g>
</svg>
